<?xml version="1.0" encoding="utf-8"?>
<!-- Generator: Adobe Illustrator 24.3.0, SVG Export Plug-In . SVG Version: 6.00 Build 0)  -->
<svg version="1.1" id="Ebene_1" xmlns="http://www.w3.org/2000/svg" xmlns:xlink="http://www.w3.org/1999/xlink" x="0px" y="0px"
	 viewBox="0 0 1893 137" style="enable-background:new 0 0 1893 137;" xml:space="preserve">
<style type="text/css">
	.st0{fill:#FFFFFF;}
	.st1{fill-rule:evenodd;clip-rule:evenodd;fill:#FFFFFF;}
</style>
<g>
	<path class="st0" d="M168.2,57.4c0.1-3.1-1.2-5.3-2.4-6.8c-1.2-1.5-2.8-2.2-4.9-2.1c-2.3,0-4.1,0.8-5.6,2.5
		c-1.4,1.6-2.2,3.7-2.3,6.4L168.2,57.4L168.2,57.4z M190.3,62.6c0.1,3.2-0.3,6.6-0.8,10.1h-36.4c0.2,2.4,1.4,4.2,3.6,5.8
		c2.2,1.6,5.6,2.3,10.2,2.4c6.1,0.1,12.5-1.2,19-4l1.9,16c-3.9,1.6-10.8,6.1-24.7,6.1c-10.9,0-19.2-2.6-25-7.9
		c-5.8-5.3-8.8-13.6-8.8-25c0-6.7,1.2-12.6,3.7-17.8c2.5-5.2,6.1-9.3,10.8-12.3c4.8-3,10.6-4.5,17.6-4.5c6.6,0,11,1.4,15.3,4.1
		C181,38.2,189.5,45.4,190.3,62.6L190.3,62.6z M355.4,62.6c0.1,3.2-0.3,6.6-0.8,10.1h-36.5c0.2,2.4,1.4,4.2,3.6,5.8
		c2.2,1.6,5.6,2.3,10.2,2.4c6.2,0.1,12.5-1.2,19-4l1.9,16c-3.9,1.6-10.8,6.1-24.7,6.1c-10.8,0-19.2-2.6-25-7.9
		c-5.8-5.3-8.8-13.6-8.8-25c0-6.7,1.2-12.6,3.7-17.8c2.5-5.2,6.1-9.3,10.8-12.3c4.8-3,10.6-4.5,17.6-4.5c6.6,0,11,1.4,15.3,4.1
		C346.1,38.2,354.6,45.4,355.4,62.6L355.4,62.6z M333.3,57.4c0.1-3.1-1.2-5.3-2.4-6.8s-2.8-2.2-4.9-2.1c-2.3,0-4.1,0.8-5.5,2.5
		c-1.4,1.6-2.2,3.7-2.3,6.4L333.3,57.4L333.3,57.4z M83.8,68.6v23.4c-4.5,2.5-7.6,3.6-13,4.9c-5.4,1.3-11.1,1.9-17.1,1.9
		c-8.9-0.1-13.1-1.4-19.3-4.1c-6.2-2.6-11.1-6.1-14.9-10.4c-3.8-4.3-6.5-9-8.2-14.1c-1.7-5.1-2.5-10.1-2.5-15.1c0-8.4,2-16,5.9-22.7
		c3.9-6.7,9.5-11.9,16.9-15.8c7.4-3.9,13-5.9,23.5-6c11.4,0,20.1,2,28.5,5.8v23.9c-4.6-2.7-7.3-3.7-11.3-4.9
		c-4-1.3-8.2-1.9-12.5-1.9c-7.6,0.1-10.2,1.9-14.5,5.7s-6.5,8.9-6.5,15.5c0.1,6.5,2.3,11.6,6.7,15.4c4.4,3.8,7,5.7,14.6,5.8
		c4.2,0,8.4-0.6,12.3-1.8C76.5,73,79,71.3,83.8,68.6L83.8,68.6z M136.3,34l-10.2,20.4c-3.5-0.7-6.5-0.4-9,2.1
		c-2.5,2.4-3.7,7.1-3.8,14v26.9H89.8V33.1h21.7l0,9.8c0,0,3.6-6.9,6.7-8.6C122.6,32.1,131.9,30.6,136.3,34L136.3,34z M291.2,97.3
		h-23.5V57.5c0.2-4-1-6-3.6-6.1c-2.4,0.1-5.1,1.6-7.2,4.4c-2,2.8-2.6,6.3-2.8,10.5v31h-23.3V57.5c0.1-4-1.1-6-3.6-6.1
		c-2.4,0.1-5.1,1.6-7.2,4.4c-2.1,2.8-2.6,6.3-2.8,10.5v31h-23.5V33h21.9v8.7c0,0,4.3-5.7,7.7-7.5c3.4-1.8,7.3-2.7,11.6-2.7
		c4,0,7.5,0.7,10.6,2.3c3.1,1.6,5.4,4.2,6.8,7.9c1.9-3.2,4.5-5.7,7.9-7.5c3.4-1.8,7.2-2.7,11.5-2.7c12.9,0,19.4,7.4,19.5,22
		L291.2,97.3L291.2,97.3z"/>
	<path class="st1" d="M190.3,62.6c0.1,3.2-0.3,6.6-0.8,10.1h-36.4c0.2,2.4,1.4,4.2,3.6,5.8c2.2,1.6,5.6,2.3,10.2,2.4
		c6.1,0.1,12.5-1.2,19-4l1.9,16c-3.9,1.6-10.8,6.1-24.7,6.1c-10.9,0-19.2-2.6-25-7.9c-5.8-5.3-8.8-13.6-8.8-25
		c0-6.7,1.2-12.6,3.7-17.8c2.5-5.2,6.1-9.3,10.8-12.3c4.8-3,10.6-4.5,17.6-4.5c6.6,0,11,1.4,15.3,4.1
		C181,38.2,189.5,45.4,190.3,62.6L190.3,62.6z M168.2,57.4c0.1-3.1-1.2-5.3-2.4-6.8c-1.2-1.5-2.8-2.2-4.9-2.1
		c-2.3,0-4.1,0.8-5.6,2.5c-1.4,1.6-2.2,3.7-2.3,6.4L168.2,57.4L168.2,57.4z"/>
	<path class="st1" d="M355.4,62.6c0.1,3.2-0.3,6.6-0.8,10.1h-36.5c0.2,2.4,1.4,4.2,3.6,5.8c2.2,1.6,5.6,2.3,10.2,2.4
		c6.2,0.1,12.5-1.2,19-4l1.9,16c-3.9,1.6-10.8,6.1-24.7,6.1c-10.8,0-19.2-2.6-25-7.9c-5.8-5.3-8.8-13.6-8.8-25
		c0-6.7,1.2-12.6,3.7-17.8c2.5-5.2,6.1-9.3,10.8-12.3c4.8-3,10.6-4.5,17.6-4.5c6.6,0,11,1.4,15.3,4.1
		C346.1,38.2,354.6,45.4,355.4,62.6L355.4,62.6z M333.3,57.4c0.1-3.1-1.2-5.3-2.4-6.8s-2.8-2.2-4.9-2.1c-2.3,0-4.1,0.8-5.5,2.5
		c-1.4,1.6-2.2,3.7-2.3,6.4L333.3,57.4L333.3,57.4z"/>
	<path class="st0" d="M83.8,68.6v23.4c-4.5,2.5-7.6,3.6-13,4.9c-5.4,1.3-11.1,1.9-17.1,1.9c-8.9-0.1-13.1-1.4-19.3-4.1
		c-6.2-2.6-11.1-6.1-14.9-10.4c-3.8-4.3-6.5-9-8.2-14.1c-1.7-5.1-2.5-10.1-2.5-15.1c0-8.4,2-16,5.9-22.7c3.9-6.7,9.5-11.9,16.9-15.8
		c7.4-3.9,13-5.9,23.5-6c11.4,0,20.1,2,28.5,5.8v23.9c-4.6-2.7-7.3-3.7-11.3-4.9c-4-1.3-8.2-1.9-12.5-1.9
		c-7.6,0.1-10.2,1.9-14.5,5.7s-6.5,8.9-6.5,15.5c0.1,6.5,2.3,11.6,6.7,15.4c4.4,3.8,7,5.7,14.6,5.8c4.2,0,8.4-0.6,12.3-1.8
		C76.5,73,79,71.3,83.8,68.6L83.8,68.6z"/>
	<path class="st0" d="M136.3,34l-10.2,20.4c-3.5-0.7-6.5-0.4-9,2.1c-2.5,2.4-3.7,7.1-3.8,14v26.9H89.8V33.1h21.7c0,1.1,0,8.1,0,9.8
		c0,0,3.6-6.9,6.7-8.6C122.6,32.1,131.9,30.6,136.3,34L136.3,34z"/>
	<path class="st0" d="M291.2,97.3h-23.5V57.5c0.2-4-1-6-3.6-6.1c-2.4,0.1-5.1,1.6-7.2,4.4c-2,2.8-2.6,6.3-2.8,10.5v31h-23.3V57.5
		c0.1-4-1.1-6-3.6-6.1c-2.4,0.1-5.1,1.6-7.2,4.4c-2.1,2.8-2.6,6.3-2.8,10.5v31h-23.5V33h21.9c0,0.9,0,7,0,8.7c0,0,4.3-5.7,7.7-7.5
		c3.4-1.8,7.3-2.7,11.6-2.7c4,0,7.5,0.7,10.6,2.3c3.1,1.6,5.4,4.2,6.8,7.9c1.9-3.2,4.5-5.7,7.9-7.5c3.4-1.8,7.2-2.7,11.5-2.7
		c12.9,0,19.4,7.4,19.5,22L291.2,97.3L291.2,97.3z"/>
	<path class="st0" d="M386.6,18.3c3.1-1.7,7.6-4,11-4.9c4.5-1.2,7.9-2.5,13.6-2.5c12,0.1,18.7,2.1,24.2,7.2c5.7,5.3,9.1,12,9.2,20.3
		c-0.1,6.2-3.1,12.8-6.1,18c-3.1,5.6-10.8,21.9-10.8,21.9c5.1,0,14.6,0.1,19.6,0.1l0,20.1l-63,0c0,0,21.3-39.8,24.1-44.6
		c2.5-4.1,3.7-6.3,3.9-9c-0.7-7.4-7.9-7.1-12.9-5.3c-4.1,1.8-9.7,5.1-12.8,6.9V18.3L386.6,18.3z M490.5,99h-29.2l0.1-59.3l-12.8,4.9
		l-1.5-19.9l43.3-15.6L490.5,99L490.5,99z"/>
</g>
<g>
	<path class="st0" d="M497.4,84.2c0-4.3,1.5-7.9,4.5-10.9c3-2.9,6.6-4.4,10.9-4.4c4.2,0,7.8,1.5,10.8,4.5c3,3,4.5,6.6,4.5,10.8
		c0,4.2-1.5,7.8-4.5,10.8c-3,3-6.6,4.5-10.8,4.5S505,98,501.9,95C498.9,92,497.4,88.4,497.4,84.2z"/>
	<path class="st0" d="M664.7,98.4h-30l0.7-46.4l-23.1,31.7L589.2,52l0.7,46.4h-30V13h26.8l25.5,34.6L637.9,13h26.8L664.7,98.4
		L664.7,98.4z"/>
	<path class="st0" d="M734.7,75.9l4.8,10.8c-7.5,8.6-17.7,12.9-30.6,12.9c-11,0-20-3.3-27-9.8c-7-6.5-10.5-14.7-10.5-24.6
		c0-9.7,3.3-17.7,9.8-24.2c6.5-6.5,14.6-9.7,24.4-9.7c9.5,0,17.4,3.2,23.8,9.5s9.6,14.4,9.6,24.2c0,1.8-0.1,3.5-0.3,5.3h-43.2
		c0.2,3.7,2,6.8,5.7,9.3c3.6,2.6,7.8,3.8,12.5,3.8C720.4,83.4,727.4,80.9,734.7,75.9z M694.4,60.5h22.7c-0.1-9.8-3.9-14.7-11.4-14.7
		c-2.4,0-4.5,0.5-6.3,1.6s-3.1,2.6-3.9,4.6C694.8,54,694.4,56.8,694.4,60.5z"/>
	<path class="st0" d="M744.7,98.4V32.4h26v66.1L744.7,98.4L744.7,98.4z M749,18.8c0-2.4,0.8-4.5,2.5-6.2s3.8-2.6,6.2-2.6
		s4.5,0.8,6.2,2.6c1.7,1.7,2.5,3.8,2.5,6.2c0,2.4-0.8,4.5-2.5,6.2s-3.8,2.6-6.2,2.6c-2.4,0-4.5-0.8-6.2-2.6
		C749.8,23.3,749,21.2,749,18.8z"/>
	<path class="st0" d="M779.2,98.4V32.4h26V41c3.4-3.4,6.8-5.9,10-7.5c3.3-1.5,7-2.3,11.2-2.3c7.2,0,12.8,2.1,16.7,6.2s6,9.9,6,17.3
		v43.7h-26V62.2c0-6.4-2.5-9.7-7.5-9.7c-4.2,0-7.6,2.4-10.4,7.2v38.7H779.2L779.2,98.4z"/>
	<path class="st0" d="M917.4,75.9l4.8,10.8c-7.5,8.6-17.7,12.9-30.6,12.9c-11,0-20-3.3-27-9.8c-7-6.5-10.5-14.7-10.5-24.6
		c0-9.7,3.3-17.7,9.8-24.2c6.5-6.5,14.6-9.7,24.4-9.7c9.5,0,17.4,3.2,23.8,9.5s9.6,14.4,9.6,24.2c0,1.8-0.1,3.5-0.3,5.3h-43.2
		c0.2,3.7,2,6.8,5.7,9.3c3.6,2.6,7.8,3.8,12.5,3.8C903.1,83.4,910.2,80.9,917.4,75.9z M877.1,60.5h22.7c-0.1-9.8-3.9-14.7-11.4-14.7
		c-2.4,0-4.5,0.5-6.3,1.6s-3.1,2.6-3.9,4.6C877.5,54,877.1,56.8,877.1,60.5z"/>
	<path class="st0" d="M963.5,98.4V13h29.9v64h33.6v21.4H963.5z"/>
	<path class="st0" d="M1028.3,98.4V32.4h26v66.1L1028.3,98.4L1028.3,98.4z M1032.6,18.8c0-2.4,0.8-4.5,2.5-6.2
		c1.7-1.7,3.8-2.6,6.2-2.6s4.5,0.8,6.2,2.6c1.7,1.7,2.5,3.8,2.5,6.2c0,2.4-0.8,4.5-2.5,6.2c-1.7,1.7-3.8,2.6-6.2,2.6
		s-4.5-0.8-6.2-2.6C1033.5,23.3,1032.6,21.2,1032.6,18.8z"/>
	<path class="st0" d="M1123.2,75.9l4.8,10.8c-7.5,8.6-17.7,12.9-30.6,12.9c-11,0-20.1-3.3-27.1-9.8c-7-6.5-10.5-14.7-10.5-24.6
		c0-9.7,3.3-17.7,9.8-24.2c6.5-6.5,14.6-9.7,24.4-9.7c9.4,0,17.4,3.2,23.8,9.5s9.6,14.4,9.6,24.2c0,1.8-0.1,3.5-0.3,5.3h-43.2
		c0.2,3.7,2.1,6.8,5.7,9.3c3.6,2.6,7.8,3.8,12.5,3.8C1109,83.4,1116,80.9,1123.2,75.9z M1082.9,60.5h22.7
		c-0.1-9.8-3.9-14.7-11.4-14.7c-2.4,0-4.5,0.5-6.3,1.6s-3.1,2.6-3.9,4.6C1083.3,54,1082.9,56.8,1082.9,60.5z"/>
	<path class="st0" d="M1133.4,98.4V13h26V34c4.8-1.8,9.9-2.8,15-2.8c9.9,0,18.2,3.3,24.7,9.8s9.8,14.7,9.8,24.6
		c0,8.9-3.1,16.6-9.2,23.1c-6.1,6.5-14.4,9.7-24.8,9.7L1133.4,98.4L1133.4,98.4z M1159.4,53.8v22.8c3.1,0.6,5.9,0.8,8.4,0.8
		c4.6,0,8.3-1.1,11-3.4s4.1-5.3,4.1-9.1c0-3.7-1.3-6.7-4-9.1s-6.1-3.5-10.4-3.5C1165.6,52.2,1162.5,52.7,1159.4,53.8z"/>
	<path class="st0" d="M1213.1,98.4V13h26v85.4H1213.1z"/>
	<path class="st0" d="M1247.9,98.4V32.4h26v66.1L1247.9,98.4L1247.9,98.4z M1252.2,18.8c0-2.4,0.8-4.5,2.5-6.2
		c1.7-1.7,3.8-2.6,6.2-2.6c2.4,0,4.5,0.8,6.2,2.6c1.7,1.7,2.5,3.8,2.5,6.2c0,2.4-0.8,4.5-2.5,6.2c-1.7,1.7-3.8,2.6-6.2,2.6
		c-2.4,0-4.5-0.8-6.2-2.6C1253,23.3,1252.2,21.2,1252.2,18.8z"/>
	<path class="st0" d="M1282.5,98.4V32.4h26V41c3.4-3.4,6.8-5.9,10-7.5c3.3-1.5,7-2.3,11.2-2.3c7.2,0,12.8,2.1,16.7,6.2
		c4,4.1,6,9.9,6,17.3v43.7h-26V62.2c0-6.4-2.5-9.7-7.5-9.7c-4.2,0-7.6,2.4-10.4,7.2v38.7H1282.5L1282.5,98.4z"/>
	<path class="st0" d="M1426.2,31.2v14.2h-9.9c2.7,3.8,4,8.1,4,12.8c0,5.1-1.8,9.6-5.3,13.7c-3.5,4.1-8.9,6.7-16.2,8
		c-2.1,0.4-3.5,0.8-4.3,1.2c-0.8,0.4-1.2,1.2-1.2,2.3c0,0.8,0.4,1.6,1.2,2.1c0.8,0.6,3.1,1.2,6.8,1.8c4.7,0.8,8.7,1.8,11.9,3.1
		c3.2,1.3,5.8,3.4,7.8,6.2c2,2.9,3.1,6,3.1,9.4c0,6.2-3.1,11.3-9.3,15.3c-6.2,4-14.9,6.1-25.9,6.1c-21.6,0-32.3-5.6-32.3-16.8
		c0-3.5,1.5-6.7,4.4-9.5c2.9-2.8,6.9-4.6,12-5.3v-0.2c-3.7-1.6-5.5-4.2-5.5-7.8c0-4,2.6-7.1,7.8-9.1c-10.7-4.1-16.1-11.2-16.1-21.4
		c0-4.7,1.4-9.1,4.1-13.2c2.8-4.1,6.8-7.2,12-9.5c5.3-2.3,11.6-3.4,19-3.4L1426.2,31.2L1426.2,31.2z M1389.8,99.8
		c-3.8,0-6.8,0.8-9.1,2.4c-2.3,1.6-3.5,3.8-3.5,6.4c0,5.7,4.2,8.5,12.5,8.5c8.9,0,13.4-2.7,13.4-8.1c0-2.7-1.2-4.9-3.6-6.7
		C1397.2,100.7,1393.9,99.8,1389.8,99.8z M1389.7,47.3c-3.1,0-5.6,0.9-7.7,2.8c-2.1,1.9-3.1,4.2-3.1,6.9c0,2.6,1,4.8,3.1,6.7
		c2.1,1.8,4.6,2.8,7.6,2.8c3.1,0,5.8-0.9,7.8-2.8c2.1-1.9,3.2-4.2,3.2-6.9c0-2.8-1-5-3-6.8C1395.5,48.2,1392.9,47.3,1389.7,47.3z"/>
	<path class="st0" d="M1476.7,36.6V54c-7.2-4.4-13.3-6.7-18.2-6.7c-1.8,0-3.3,0.4-4.4,1.3s-1.7,1.9-1.7,3.2c0,1.1,0.4,2.1,1.2,3
		s3.1,2,6.8,3.4c7.9,2.8,13.2,6.2,15.8,10c2.6,3.8,3.8,7.6,3.8,11.3c0,3.4-1,6.7-3,9.9c-2,3.2-4.9,5.6-8.7,7.4
		c-3.8,1.8-8.4,2.7-13.7,2.7c-11.3,0-20.8-2.1-28.3-6.4V74.4c7.9,6,14.8,9,20.8,9c4.6,0,6.9-1.7,6.9-5.1c0-1.1-0.5-2.1-1.5-3.1
		c-1-1-3.7-2.5-8-4.5c-7.6-3.5-12.6-6.8-14.8-9.9s-3.4-6.5-3.4-10.1c0-5.7,2.3-10.3,6.8-14c4.5-3.7,11.2-5.5,19.8-5.5
		C1461.7,31.2,1469.6,33,1476.7,36.6z"/>
	<path class="st0" d="M1510,32.4v6.4c5.9-5,12.3-7.5,19.2-7.5c8.6,0,15.8,3.2,21.6,9.6c5.8,6.4,8.7,14.5,8.7,24.1
		c0,10.3-3.2,18.6-9.4,25c-6.3,6.4-14.4,9.6-24.5,9.6c-5.4,0-10.6-1-15.5-2.9V127h-26V32.4H1510L1510,32.4z M1510,54.6V76
		c3.5,1.4,6.7,2.1,9.7,2.1c4,0,7.3-1.2,9.9-3.7c2.6-2.5,3.8-5.7,3.8-9.6c0-3.9-1.3-7-3.8-9.4c-2.5-2.4-5.8-3.6-9.9-3.6
		C1516.7,51.7,1513.4,52.7,1510,54.6z"/>
	<path class="st0" d="M1569.5,98.4V57h-10.1V40.5h10.1v-3.9c0-7.8,2.3-13.8,7-18.2c4.7-4.3,11.2-6.5,19.5-6.5
		c3.8,0,7.6,0.5,11.2,1.3v17.3c-1.7-0.6-3.1-0.8-4.4-0.8c-4.9,0-7.3,3-7.3,8.9v1.9h11.2V57h-11.2v41.4L1569.5,98.4L1569.5,98.4z"/>
	<path class="st0" d="M1610.8,98.4V13h26v85.4H1610.8z"/>
	<path class="st0" d="M1705.7,75.9l4.8,10.8c-7.5,8.6-17.7,12.9-30.6,12.9c-11,0-20.1-3.3-27.1-9.8c-7-6.5-10.5-14.7-10.5-24.6
		c0-9.7,3.3-17.7,9.8-24.2c6.5-6.5,14.6-9.7,24.4-9.7c9.4,0,17.4,3.2,23.8,9.5s9.6,14.4,9.6,24.2c0,1.8-0.1,3.5-0.3,5.3h-43.2
		c0.2,3.7,2.1,6.8,5.7,9.3c3.6,2.6,7.8,3.8,12.5,3.8C1691.4,83.4,1698.5,80.9,1705.7,75.9z M1665.4,60.5h22.7
		c-0.1-9.8-3.9-14.7-11.4-14.7c-2.4,0-4.5,0.5-6.3,1.6s-3.1,2.6-3.9,4.6C1665.8,54,1665.4,56.8,1665.4,60.5z"/>
	<path class="st0" d="M1779.5,31.2v14.2h-9.9c2.7,3.8,4,8.1,4,12.8c0,5.1-1.8,9.6-5.3,13.7c-3.5,4.1-8.9,6.7-16.2,8
		c-2.1,0.4-3.5,0.8-4.3,1.2c-0.8,0.4-1.2,1.2-1.2,2.3c0,0.8,0.4,1.6,1.2,2.1c0.8,0.6,3.1,1.2,6.8,1.8c4.7,0.8,8.7,1.8,11.9,3.1
		c3.2,1.3,5.8,3.4,7.8,6.2c2,2.9,3.1,6,3.1,9.4c0,6.2-3.1,11.3-9.3,15.3c-6.2,4-14.9,6.1-25.9,6.1c-21.6,0-32.3-5.6-32.3-16.8
		c0-3.5,1.5-6.7,4.4-9.5c2.9-2.8,6.9-4.6,12-5.3v-0.2c-3.7-1.6-5.5-4.2-5.5-7.8c0-4,2.6-7.1,7.8-9.1c-10.7-4.1-16.1-11.2-16.1-21.4
		c0-4.7,1.4-9.1,4.1-13.2c2.8-4.1,6.8-7.2,12-9.5c5.3-2.3,11.6-3.4,19-3.4L1779.5,31.2L1779.5,31.2z M1743.1,99.8
		c-3.8,0-6.8,0.8-9.1,2.4c-2.3,1.6-3.5,3.8-3.5,6.4c0,5.7,4.2,8.5,12.5,8.5c8.9,0,13.4-2.7,13.4-8.1c0-2.7-1.2-4.9-3.6-6.7
		C1750.4,100.7,1747.2,99.8,1743.1,99.8z M1743,47.3c-3.1,0-5.6,0.9-7.7,2.8c-2.1,1.9-3.1,4.2-3.1,6.9c0,2.6,1,4.8,3.1,6.7
		c2.1,1.8,4.6,2.8,7.6,2.8c3.1,0,5.8-0.9,7.8-2.8c2.1-1.9,3.2-4.2,3.2-6.9c0-2.8-1-5-3-6.8S1746.2,47.3,1743,47.3z"/>
	<path class="st0" d="M1842.6,75.9l4.8,10.8c-7.5,8.6-17.7,12.9-30.6,12.9c-11,0-20.1-3.3-27.1-9.8c-7-6.5-10.5-14.7-10.5-24.6
		c0-9.7,3.3-17.7,9.8-24.2c6.5-6.5,14.6-9.7,24.4-9.7c9.4,0,17.4,3.2,23.8,9.5s9.6,14.4,9.6,24.2c0,1.8-0.1,3.5-0.3,5.3h-43.2
		c0.2,3.7,2.1,6.8,5.7,9.3c3.6,2.6,7.8,3.8,12.5,3.8C1828.4,83.4,1835.4,80.9,1842.6,75.9z M1802.4,60.5h22.7
		c-0.1-9.8-3.9-14.7-11.4-14.7c-2.4,0-4.5,0.5-6.3,1.6s-3.1,2.6-3.9,4.6C1802.8,54,1802.4,56.8,1802.4,60.5z"/>
	<path class="st0" d="M1852.3,84.2c0-4.3,1.5-7.9,4.5-10.9c3-2.9,6.6-4.4,10.9-4.4c4.2,0,7.8,1.5,10.8,4.5c3,3,4.5,6.6,4.5,10.8
		c0,4.2-1.5,7.8-4.5,10.8s-6.6,4.5-10.8,4.5s-7.9-1.5-10.9-4.5C1853.8,92,1852.3,88.4,1852.3,84.2z"/>
</g>
</svg>
