<svg xmlns="http://www.w3.org/2000/svg" viewBox="0 0 106.08 82.28"><defs><style>.cls-1{fill:#b2b2b2;}</style></defs><g id="Layer_2" data-name="Layer 2"><g id="Layer_1-2" data-name="Layer 1"><path class="cls-1" d="M100.64,82.28C72.76,71.74,62.56,46.92,62.56,26.18,62.56,16.66,67,0,83,0c13.26,0,19.38,8.5,19.38,18,0,7.82-6.12,15.3-15,15.3A20.56,20.56,0,0,1,79.9,32c0,5.78.34,29.24,26.18,40.46Zm-62.56,0C10.2,71.74,0,46.92,0,26.18,0,16.66,4.42,0,20.4,0,33.66,0,39.78,8.5,39.78,18c0,7.82-6.12,15.3-15,15.3A20.56,20.56,0,0,1,17.34,32c0,5.78.34,29.24,26.18,40.46Z"/></g></g></svg>