<svg xmlns="http://www.w3.org/2000/svg" viewBox="0 0 202.23 99.07"><defs><style>.cls-1{fill:#164194;}.cls-2{fill:#00acd8;}</style></defs><g id="Layer_2" data-name="Layer 2"><g id="Layer_1-2" data-name="Layer 1"><path class="cls-1" d="M107.48,6.33c1.11-.57,2,.94,2,3.37s-.89,4.88-2,5.45L72.39,33.31c-1.11.58-2-.93-2-3.37s.9-4.87,2-5.44Z"/><path class="cls-1" d="M3.34,6.33C1.49,5.76,0,7.27,0,9.7s1.49,4.87,3.34,5.45L61.83,33.31c1.84.58,3.34-.93,3.34-3.37s-1.5-4.87-3.34-5.44Z"/><path class="cls-2" d="M94.45.12c1.1-.57,2,.94,2,3.37s-.9,4.87-2,5.45L72.38,20.35c-1.1.58-2-.93-2-3.37s.9-4.87,2-5.44Z"/><path class="cls-2" d="M25.06.12c-1.84-.57-3.34.94-3.34,3.37s1.5,4.87,3.34,5.44L61.83,20.35c1.84.58,3.34-.93,3.34-3.37s-1.5-4.87-3.34-5.44Z"/><path class="cls-1" d="M107.48,19.29c1.11-.57,2,.94,2,3.37s-.89,4.88-2,5.45L72.39,46.27c-1.11.58-2-.93-2-3.37s.9-4.87,2-5.44Z"/><path class="cls-1" d="M3.34,19.29C1.49,18.72,0,20.23,0,22.66s1.49,4.87,3.34,5.45L61.83,46.27c1.84.58,3.34-.93,3.34-3.37s-1.5-4.87-3.34-5.44Z"/><path class="cls-2" d="M94.45,39c1.1-.57,2,.94,2,3.37s-.9,4.87-2,5.44L72.38,59.23c-1.1.58-2-.93-2-3.37s.9-4.87,2-5.44Z"/><path class="cls-2" d="M25.06,39c-1.84-.57-3.34.94-3.34,3.37s1.5,4.87,3.34,5.44L61.83,59.23c1.84.58,3.34-.93,3.34-3.37s-1.5-4.87-3.34-5.44Z"/><path class="cls-1" d="M11.64,91.65h.57a.51.51,0,0,0,.56-.56V83.24c.1-5.46,3.57-6.89,5.53-6.89,2.51,0,5,1.3,5,5.87v8.87a.51.51,0,0,0,.56.56h.6a.5.5,0,0,0,.53-.56v-8c.13-5.4,3.64-6.76,5.53-6.76,2.51,0,5.06,1.3,5.06,5.87v8.87a.5.5,0,0,0,.53.56h.6a.51.51,0,0,0,.53-.56V82.22c0-5.63-3.08-7.39-6.66-7.39a6.29,6.29,0,0,0-6,4.34c-1-3.48-3.74-4.34-6.12-4.34a6.16,6.16,0,0,0-5.73,4V75.76a.5.5,0,0,0-.56-.56h-.57a.52.52,0,0,0-.56.56V91.09a.51.51,0,0,0,.56.56"/><path class="cls-1" d="M45.44,99.07h.5a.64.64,0,0,0,.63-.43L56.2,75.86c.17-.43,0-.66-.43-.66H55a.61.61,0,0,0-.66.46l-5.76,14.2-6-14.23A.64.64,0,0,0,42,75.2h-.76c-.4,0-.6.26-.43.66l6.88,15.92L45,98.44c-.16.39,0,.63.43.63"/><path class="cls-2" d="M76,68.48H59.94a1.25,1.25,0,0,0-1.39,1.39v.86a1.28,1.28,0,0,0,1.39,1.42H65.8V90.26a1.26,1.26,0,0,0,1.39,1.39h1.56a1.26,1.26,0,0,0,1.39-1.39V72.15H76a1.28,1.28,0,0,0,1.39-1.42v-.86A1.25,1.25,0,0,0,76,68.48"/><path class="cls-2" d="M90.1,81.19H80.67a4.75,4.75,0,0,1,4.86-3.31,4.28,4.28,0,0,1,4.57,3.31m4.11,1.36c-.33-5.37-4.24-8.08-8.74-8.08a8.79,8.79,0,0,0-9.14,8.84c0,4.8,3.64,8.7,9.6,8.7a10.14,10.14,0,0,0,6.32-2,1.34,1.34,0,0,0,.27-2.12l-.3-.37a1.41,1.41,0,0,0-2-.26,7.61,7.61,0,0,1-4.14,1.23c-3.48,0-5.73-2.09-5.66-4.64H92.82c.89,0,1.45-.46,1.39-1.32"/><path class="cls-2" d="M97.22,91.65h1.59a2,2,0,0,0,1.72-.79l4.44-5.3,4.4,5.3a2.09,2.09,0,0,0,1.72.79h1.59c1.19,0,1.56-.79.8-1.72l-5.8-7L113,76.55c.76-.92.39-1.72-.83-1.72h-1.56a2.07,2.07,0,0,0-1.72.83L105,80.29l-3.91-4.63a2.06,2.06,0,0,0-1.69-.83H97.82c-1.23,0-1.59.8-.83,1.72l5.26,6.39-5.82,7c-.77.93-.4,1.72.79,1.72"/><path class="cls-2" d="M118.87,91.65h1.46a1.28,1.28,0,0,0,1.42-1.39V83.37c0-4.1,2.19-5.33,3.78-5.33s2.88,1.29,2.88,4.14v8.08a1.25,1.25,0,0,0,1.39,1.39h1.45a1.28,1.28,0,0,0,1.43-1.39V83.11c.1-4,2.28-5.07,3.77-5.07,1.66,0,2.85,1.29,2.85,4.14v8.08a1.28,1.28,0,0,0,1.42,1.39h1.46a1.26,1.26,0,0,0,1.39-1.39V82.08c0-4.6-2.12-7.61-6.29-7.61a5.78,5.78,0,0,0-5.56,3.21,5.29,5.29,0,0,0-5.07-3.21,4.89,4.89,0,0,0-4.9,3.34V76.26a1.31,1.31,0,0,0-1.42-1.43h-1.46a1.28,1.28,0,0,0-1.39,1.43v14a1.26,1.26,0,0,0,1.39,1.39"/><path class="cls-2" d="M161.08,83.24c0,3-2,5.23-4.93,5.23s-4.77-2.35-4.77-5.23S153.13,78,156.15,78s4.9,2.22,4.93,5.23m4.2,7v-14a1.31,1.31,0,0,0-1.42-1.43H162.4A1.28,1.28,0,0,0,161,76.26v1.09a6.6,6.6,0,0,0-5.69-2.88c-4.87,0-8.21,3.87-8.21,8.77S150.45,92,155.32,92A6.57,6.57,0,0,0,161,89.13v1.13a1.26,1.26,0,0,0,1.39,1.39h1.46a1.28,1.28,0,0,0,1.42-1.39"/><path class="cls-2" d="M175.51,92c3.45,0,6.43-1.78,6.43-5.16,0-1.92-1.1-3.87-4.44-4.93l-2.25-.8c-.93-.3-1.72-.76-1.72-1.65a1.84,1.84,0,0,1,2.05-1.76,2.25,2.25,0,0,1,1.82.76,1.62,1.62,0,0,0,1.76.67l.76-.2c.92-.23,1.39-.93.83-1.79a5.64,5.64,0,0,0-5.24-2.68c-3.47,0-5.92,2.18-5.92,5.16,0,2.75,2.32,4.07,4.47,4.74l2.15.76c1.09.4,1.79.86,1.79,1.75,0,1.06-1,1.86-2.49,1.86a3.63,3.63,0,0,1-2.78-1.19c-.56-.63-1-1-1.75-.8l-.86.2c-.9.23-1.36.86-.93,1.75,1.13,2.19,3.51,3.31,6.32,3.31"/><path class="cls-2" d="M198.36,92a6.69,6.69,0,0,0,3-.66c.86-.43,1-1,.79-1.49l-.63-1.29c-.26-.46-.59-.56-1.16-.36a3.52,3.52,0,0,1-1.25.23c-1.23,0-1.79-.66-2.65-2L194,82.58l4.84-6c.73-.92.36-1.72-.83-1.72h-1.72a1.87,1.87,0,0,0-1.69.86l-4.63,6.1V69.11a1.29,1.29,0,0,0-1.43-1.4H187a1.27,1.27,0,0,0-1.4,1.4V90.26a1.26,1.26,0,0,0,1.4,1.39h1.45a1.28,1.28,0,0,0,1.43-1.39V83.41l2.81,4.8c1.16,2,2.55,3.8,5.63,3.8"/></g></g></svg>