<svg xmlns="http://www.w3.org/2000/svg" viewBox="0 0 128.16 128.14"><defs><style>.cls-1,.cls-5{fill:#fff;}.cls-1{fill-rule:evenodd;}.cls-2,.cls-4{fill:none;stroke:#fff;stroke-miterlimit:3.86;}.cls-2{stroke-width:0.34px;}.cls-3{fill:#f37021;}.cls-4{stroke-width:1.14px;}</style></defs><g id="Layer_2" data-name="Layer 2"><g id="Layer_1-2" data-name="Layer 1"><path class="cls-1" d="M109.5,29.58l.84-.3a1.23,1.23,0,0,1,.88,0,.9.9,0,0,1,.54.57.92.92,0,0,1,0,.54,1,1,0,0,1-.3.47,1.64,1.64,0,0,1,.53.23c.16.12.35.25.54.41l.2.16.21.14.28.19-.57.21-.68-.52a3.55,3.55,0,0,0-.55-.36,1.11,1.11,0,0,0-.35-.12.53.53,0,0,0-.25.05l-.2.07.52,1.43-.47.17Zm.63.23.37,1,.31-.11a.74.74,0,0,0,.46-.36.56.56,0,0,0,0-.42.47.47,0,0,0-.28-.3.83.83,0,0,0-.55,0Z"/><path class="cls-2" d="M108.35,31.86a3,3,0,1,1,3.78,1.76A3,3,0,0,1,108.35,31.86Z"/><path class="cls-1" d="M109.5,29.58l.84-.3a1.23,1.23,0,0,1,.88,0,.9.9,0,0,1,.54.57.92.92,0,0,1,0,.54,1,1,0,0,1-.3.47,1.64,1.64,0,0,1,.53.23c.16.12.35.25.54.41l.2.16.21.14.28.19-.57.21-.68-.52a3.55,3.55,0,0,0-.55-.36,1.11,1.11,0,0,0-.35-.12.53.53,0,0,0-.25.05l-.2.07.52,1.43-.47.17Zm.63.23.37,1,.31-.11a.74.74,0,0,0,.46-.36.56.56,0,0,0,0-.42.47.47,0,0,0-.28-.3.83.83,0,0,0-.55,0Z"/><path class="cls-2" d="M108.35,31.86a3,3,0,1,1,3.78,1.76A3,3,0,0,1,108.35,31.86Z"/><path class="cls-3" d="M1.55,53a63.5,63.5,0,1,1,51.5,73.56A63.48,63.48,0,0,1,1.55,53"/><path class="cls-4" d="M1.55,53a63.5,63.5,0,1,1,51.5,73.56A63.48,63.48,0,0,1,1.55,53Z"/><path class="cls-1" d="M60.49,51.36a16.28,16.28,0,0,1,.8,2.87l-10.1,3.68a2.23,2.23,0,0,0,1.58,1.23,5.54,5.54,0,0,0,3.07-.37,14,14,0,0,0,4.86-3L62.85,60a15.24,15.24,0,0,1-6.22,4.19c-3,1.09-5.58,1.22-7.73.34s-3.81-2.89-5-6a12.19,12.19,0,0,1-.77-5.31,8.35,8.35,0,0,1,1.76-4.49,9.78,9.78,0,0,1,4.4-3,8,8,0,0,1,4.66-.4c1.46.31,4.54,1.43,6.51,6.11m-6.66.8a2.9,2.9,0,0,0-1.35-1.64,1.74,1.74,0,0,0-1.58-.09,2.1,2.1,0,0,0-1.28,1.24,3.12,3.12,0,0,0,0,2Z"/><path class="cls-1" d="M106.23,34.71a15.46,15.46,0,0,1,.8,2.87l-10.1,3.68a2.25,2.25,0,0,0,1.58,1.23,5.57,5.57,0,0,0,3.08-.37,13.91,13.91,0,0,0,4.85-3l2.16,4.23a15.29,15.29,0,0,1-6.23,4.18c-3,1.1-5.58,1.23-7.73.35s-3.8-2.89-5-6a12.36,12.36,0,0,1-.78-5.31A8.43,8.43,0,0,1,90.66,32a9.82,9.82,0,0,1,4.41-3,7.94,7.94,0,0,1,4.66-.4c1.45.31,4.54,1.43,6.5,6.11m-6.65.8a2.9,2.9,0,0,0-1.35-1.64,1.77,1.77,0,0,0-1.59-.09A2.12,2.12,0,0,0,95.36,35a3,3,0,0,0,0,2Z"/><path class="cls-5" d="M31.57,63.79l2.37,6.49A12.88,12.88,0,0,1,30.83,73a22.23,22.23,0,0,1-4.53,2.24,12.53,12.53,0,0,1-5.76.82,11.85,11.85,0,0,1-5.18-1.38,12,12,0,0,1-3.68-3.08,14,14,0,0,1-2.22-3.94,13.17,13.17,0,0,1-.65-6.87,12.21,12.21,0,0,1,3.1-6.09,13.18,13.18,0,0,1,5.92-4,19.54,19.54,0,0,1,8.49-1.27L28.73,56a13.69,13.69,0,0,0-3.62-.23,12.15,12.15,0,0,0-3.65.73,5.42,5.42,0,0,0-3.45,3,6.29,6.29,0,0,0,3.15,8.54,5.5,5.5,0,0,0,4.64.11A12.27,12.27,0,0,0,29,66.46a15.7,15.7,0,0,0,2.53-2.67"/><path class="cls-5" d="M42.65,48.89l-.78,6.69a2.71,2.71,0,0,0-2.29,1.48c-.44.93-.32,2.35.36,4.25l2.71,7.45-6.51,2.37-6.48-17.8,6-2.19c.11.32.81,2.25,1,2.74a7.62,7.62,0,0,1,1-3.08c1-1.06,3.4-2.42,5-1.91"/><path class="cls-5" d="M92,50.79l-6.52,2.38-4-11c-.36-1.12-.9-1.55-1.62-1.32a2.92,2.92,0,0,0-1.55,1.94,5.41,5.41,0,0,0,.29,3.18l3.13,8.6-6.44,2.34-4-11c-.36-1.11-.89-1.55-1.61-1.32a2.94,2.94,0,0,0-1.55,1.94,5.28,5.28,0,0,0,.29,3.19l3.12,8.59L65,60.62,58.47,42.83l6.06-2.21c.08.25.7,2,.87,2.41a9.49,9.49,0,0,1,1.37-2.85,7.36,7.36,0,0,1,2.93-1.93,6.64,6.64,0,0,1,3.17-.43,4.24,4.24,0,0,1,2.7,1.5A5.62,5.62,0,0,1,77,36.46a7.17,7.17,0,0,1,2.92-1.92q5.37-1.95,7.62,4.12Z"/><path class="cls-5" d="M45.73,76.18a24.69,24.69,0,0,1,3.4-3.31,17.51,17.51,0,0,1,4.71-2.75c4.44-1.58,7.19-1.74,9.91-.6a10.58,10.58,0,0,1,6.14,6.28,15.73,15.73,0,0,1,.18,7.5c-.41,2.49-1,9.55-1,9.55,1.87-.69,5.4-1.95,7.24-2.61L79,97.67,55.7,106.15s2.51-17.59,2.93-19.75c.36-1.84.52-2.81.22-3.87C57.61,79.91,55,81,53.34,82.31a56.38,56.38,0,0,0-3.82,4.29Z"/><polygon class="cls-5" points="95.05 92.04 84.26 95.97 76.33 74.02 72.27 77.56 69.03 70.39 82.94 58.77 95.05 92.04"/><path class="cls-1" d="M99.53,21.59l.83-.31a1.28,1.28,0,0,1,.88,0,.88.88,0,0,1,.54.57.92.92,0,0,1,0,.54,1,1,0,0,1-.3.47,1.55,1.55,0,0,1,.53.23c.16.12.35.25.55.41a1.56,1.56,0,0,0,.2.16l.2.14.28.19-.57.21-.68-.52a3.55,3.55,0,0,0-.55-.36.87.87,0,0,0-.34-.12.58.58,0,0,0-.26,0l-.2.07.52,1.43-.47.17Zm.62.23.38,1,.3-.11a.74.74,0,0,0,.46-.36.51.51,0,0,0,0-.42.44.44,0,0,0-.28-.3.77.77,0,0,0-.55,0Z"/><path class="cls-2" d="M98.37,23.87a3,3,0,1,1,3.78,1.76A3,3,0,0,1,98.37,23.87Z"/></g></g></svg>